<svg width="68" height="68" viewBox="0 0 68 68" fill="none" xmlns="http://www.w3.org/2000/svg">
<path d="M14.0001 67.3333V53.1666C12.0001 52.2777 10.1806 51.0833 8.54175 49.5833C6.90286 48.0833 5.50008 46.3472 4.33341 44.375C3.16675 42.4027 2.26397 40.25 1.62508 37.9166C0.986192 35.5833 0.666748 33.1666 0.666748 30.6666C0.666748 21.8888 3.77786 14.6944 10.0001 9.08329C16.2223 3.47218 24.2223 0.666626 34.0001 0.666626C43.7779 0.666626 51.7779 3.47218 58.0001 9.08329C64.2223 14.6944 67.3334 21.8888 67.3334 30.6666C67.3334 33.1666 67.014 35.5833 66.3751 37.9166C65.7362 40.25 64.8334 42.4027 63.6667 44.375C62.5001 46.3472 61.0973 48.0833 59.4584 49.5833C57.8195 51.0833 56.0001 52.2777 54.0001 53.1666V67.3333H14.0001ZM19.0001 62.3333H24.8334V54H29.8334V62.3333H38.1667V54H43.1667V62.3333H49.0001V50.0833C51.0556 49.4722 52.9029 48.5555 54.5417 47.3333C56.1806 46.1111 57.5834 44.6527 58.7501 42.9583C59.9167 41.2638 60.8056 39.3744 61.4167 37.29C62.0279 35.2056 62.3334 33.0021 62.3334 30.6795C62.3334 23.2352 59.7223 17.2053 54.5001 12.5898C49.2779 7.97435 42.4457 5.66663 34.0037 5.66663C25.5616 5.66663 18.7283 7.97463 13.5037 12.5906C8.27905 17.2066 5.66675 23.2372 5.66675 30.6823C5.66675 33.0052 5.9723 35.2083 6.58341 37.2916C7.19453 39.375 8.08341 41.2638 9.25008 42.9583C10.4167 44.6527 11.8195 46.1111 13.4584 47.3333C15.0973 48.5555 16.9445 49.4722 19.0001 50.0833V62.3333ZM29.0001 44H39.0001L34.0001 34L29.0001 44ZM22.3408 35.6666C23.947 35.6666 25.3195 35.0947 26.4584 33.9509C27.5973 32.8071 28.1667 31.4321 28.1667 29.8259C28.1667 28.2197 27.5948 26.8472 26.451 25.7083C25.3072 24.5694 23.9322 24 22.326 24C20.7198 24 19.3473 24.5719 18.2084 25.7157C17.0695 26.8595 16.5001 28.2345 16.5001 29.8407C16.5001 31.4469 17.072 32.8194 18.2158 33.9583C19.3596 35.0972 20.7346 35.6666 22.3408 35.6666ZM45.6742 35.6666C47.2803 35.6666 48.6529 35.0947 49.7917 33.9509C50.9306 32.8071 51.5001 31.4321 51.5001 29.8259C51.5001 28.2197 50.9282 26.8472 49.7843 25.7083C48.6406 24.5694 47.2656 24 45.6593 24C44.0532 24 42.6806 24.5719 41.5417 25.7157C40.4029 26.8595 39.8334 28.2345 39.8334 29.8407C39.8334 31.4469 40.4053 32.8194 41.5492 33.9583C42.6929 35.0972 44.0679 35.6666 45.6742 35.6666Z" fill="white"/>
</svg>
