<svg width="74" height="30" viewBox="0 0 74 30" fill="none" xmlns="http://www.w3.org/2000/svg">
<path d="M31.7499 20.9166L28.7499 17.9166C29.1944 17.3055 29.5416 16.6601 29.7916 15.9805C30.0416 15.3008 30.1666 14.6063 30.1666 13.8971C30.1666 13.1879 30.0416 12.4861 29.7916 11.7916C29.5416 11.0972 29.1944 10.4722 28.7499 9.91663L31.7499 6.91663C32.6944 7.91663 33.3888 9.01385 33.8333 10.2083C34.2777 11.4027 34.4999 12.6388 34.4999 13.9166C34.4999 15.1944 34.2777 16.4305 33.8333 17.625C33.3888 18.8194 32.6944 19.9166 31.7499 20.9166ZM37.7499 26.9166L34.7499 23.9166C36.0833 22.3055 37.0694 20.665 37.7083 18.9951C38.3471 17.3252 38.6666 15.6308 38.6666 13.9118C38.6666 12.1928 38.3471 10.4861 37.7083 8.79163C37.0694 7.09718 36.0833 5.47218 34.7499 3.91663L37.7499 0.916626C39.5277 2.91663 40.8333 5.00732 41.6666 7.18871C42.4999 9.37004 42.9166 11.6127 42.9166 13.9166C42.9166 16.2037 42.4999 18.4422 41.6666 20.632C40.8333 22.8217 39.5277 24.9166 37.7499 26.9166ZM12.8296 16.5833C11.1098 16.5833 9.63881 15.971 8.41659 14.7463C7.19436 13.5216 6.58325 12.0493 6.58325 10.3296C6.58325 8.60985 7.19559 7.13885 8.42025 5.91663C9.64497 4.6944 11.1172 4.08329 12.8369 4.08329C14.5567 4.08329 16.0277 4.69563 17.2499 5.92029C18.4721 7.14502 19.0833 8.61724 19.0833 10.337C19.0833 12.0567 18.4709 13.5277 17.2463 14.75C16.0215 15.9722 14.5493 16.5833 12.8296 16.5833ZM0.333252 29.5V28.4166C0.333252 27.2455 0.650141 26.1719 1.28392 25.1959C1.9177 24.2199 2.79525 23.488 3.91659 23C5.30981 22.4154 6.74322 21.9637 8.21684 21.6449C9.69045 21.326 11.231 21.1666 12.8386 21.1666C14.4461 21.1666 15.9855 21.326 17.4567 21.6449C18.9279 21.9637 20.359 22.4154 21.7499 23C22.8713 23.488 23.7488 24.2199 24.3826 25.1959C25.0164 26.1719 25.3333 27.2455 25.3333 28.4166V29.5H0.333252ZM61.1629 16.5833C59.4431 16.5833 57.9721 15.971 56.7499 14.7463C55.5277 13.5216 54.9166 12.0493 54.9166 10.3296C54.9166 8.60985 55.5289 7.13885 56.7536 5.91663C57.9783 4.6944 59.4505 4.08329 61.1703 4.08329C62.89 4.08329 64.361 4.69563 65.5833 5.92029C66.8055 7.14502 67.4166 8.61724 67.4166 10.337C67.4166 12.0567 66.8043 13.5277 65.5796 14.75C64.3549 15.9722 62.8826 16.5833 61.1629 16.5833ZM48.6666 29.5V28.4166C48.6666 27.2455 48.9835 26.1719 49.6173 25.1959C50.251 24.2199 51.1286 23.488 52.2499 23C53.6431 22.4154 55.0766 21.9637 56.5502 21.6449C58.0238 21.326 59.5644 21.1666 61.1719 21.1666C62.7795 21.1666 64.3188 21.326 65.79 21.6449C67.2612 21.9637 68.6923 22.4154 70.0833 23C71.2046 23.488 72.0821 24.2199 72.7159 25.1959C73.3497 26.1719 73.6666 27.2455 73.6666 28.4166V29.5H48.6666Z" fill="white"/>
</svg>
