<svg width="67" height="54" viewBox="0 0 67 54" fill="none" xmlns="http://www.w3.org/2000/svg">
<path d="M27.9166 39.9166C29.1944 41.1944 31.0416 41.7916 33.4583 41.7083C35.875 41.625 37.6389 40.7222 38.75 39L56.75 10.75L28.8333 29C27.1666 30.1111 26.2777 31.8888 26.1666 34.3333C26.0555 36.7777 26.6388 38.6389 27.9166 39.9166ZM33.8333 0.416626C37 0.416626 40.3055 0.930515 43.75 1.95829C47.1944 2.98607 50.5 4.74996 53.6666 7.24996L49.3333 10.3333C46.8333 8.66663 44.1527 7.43052 41.2916 6.62496C38.4305 5.8194 35.9438 5.41663 33.8315 5.41663C26.0275 5.41663 19.3823 8.20038 13.896 13.7679C8.40977 19.3354 5.66663 26.079 5.66663 33.9985C5.66663 36.4995 6.01385 39.0277 6.70829 41.5833C7.40274 44.1389 8.38885 46.5 9.66663 48.6666H57.9166C59.1389 46.6666 60.1111 44.3333 60.8333 41.6666C61.5555 39 61.9166 36.3888 61.9166 33.8333C61.9166 31.5 61.5694 28.9861 60.875 26.2916C60.1805 23.5972 58.9444 21.1111 57.1666 18.8333L60.4166 14.5C62.5277 17.6111 64.1111 20.7361 65.1666 23.875C66.2222 27.0138 66.8055 30.1666 66.9166 33.3333C67.0277 36.6666 66.6944 39.8055 65.9166 42.75C65.1388 45.6944 64 48.4166 62.5 50.9166C61.8333 52.1944 61.125 52.9722 60.375 53.25C59.625 53.5277 58.6944 53.6666 57.5833 53.6666H9.99996C9.05552 53.6666 8.12496 53.4305 7.20829 52.9583C6.29163 52.4861 5.61107 51.8055 5.16663 50.9166C3.72218 48.25 2.61107 45.5416 1.83329 42.7916C1.05551 40.0416 0.666626 37.1111 0.666626 34C0.666626 29.3888 1.54163 25.0416 3.29163 20.9583C5.04163 16.875 7.41663 13.3194 10.4166 10.2916C13.4166 7.26385 16.9355 4.86107 20.9733 3.08329C25.0111 1.30551 29.2977 0.416626 33.8333 0.416626Z" fill="white"/>
</svg>
