<svg width="106" height="146" viewBox="0 0 106 146" fill="none" xmlns="http://www.w3.org/2000/svg">
<g filter="url(#filter0_d_1_26)">
<path d="M100.353 44.2835C57.1538 -14.5879 50.8921 -14.9227 5.77585 44.2492C4.31669 46.163 4.84407 48.97 6.94826 50.1379C42.4991 69.87 63.992 69.8392 99.153 50.1046C101.22 48.9447 101.755 46.1941 100.353 44.2835Z" fill="white"/>
<path d="M22.6001 129.051C24.3137 113.888 22.6001 52.6302 22.6001 52.6302L25.4153 54.3285C25.4153 54.3285 25.048 123.107 26.6393 129.051C28.2305 134.995 20.8865 144.214 22.6001 129.051Z" fill="white"/>
<path d="M30.9232 119.832C32.6368 104.669 30.9232 43.4113 30.9232 43.4113L33.7384 45.1095C33.7384 45.1095 33.3711 113.888 34.9624 119.832C36.5536 125.776 29.2096 134.995 30.9232 119.832Z" fill="white"/>
<path d="M40.4703 108.915C42.1839 93.7518 40.4703 32.494 40.4703 32.494L43.2855 34.1923C43.2855 34.1923 42.9183 102.971 44.5095 108.915C46.1007 114.858 38.7568 124.077 40.4703 108.915Z" fill="white"/>
<path d="M52.4654 102.607C54.179 87.4441 52.4654 22.5472 52.4654 22.5472L55.2806 24.2454C55.2806 24.2454 54.8972 96.6631 56.4884 102.607C58.0796 108.551 50.7518 117.77 52.4654 102.607Z" fill="white"/>
<path d="M68.466 108.915C66.7525 93.7518 68.466 32.494 68.466 32.494L65.6509 34.1923C65.6509 34.1923 66.0181 102.971 64.4269 108.915C62.8356 114.858 70.1796 124.077 68.466 108.915Z" fill="white"/>
<path d="M78.0132 119.832C76.2996 104.669 78.0132 43.4113 78.0132 43.4113L75.198 45.1095C75.198 45.1095 75.5652 113.888 73.974 119.832C72.3828 125.776 79.7267 134.995 78.0132 119.832Z" fill="white"/>
<path d="M86.3363 129.051C84.6227 113.888 86.3363 52.6302 86.3363 52.6302L83.5211 54.3285C83.5211 54.3285 83.8884 123.107 82.2971 129.051C80.7059 134.995 88.0499 144.214 86.3363 129.051Z" fill="white"/>
</g>
<defs>
<filter id="filter0_d_1_26" x="-1" y="0" width="108" height="145.313" filterUnits="userSpaceOnUse" color-interpolation-filters="sRGB">
<feFlood flood-opacity="0" result="BackgroundImageFix"/>
<feColorMatrix in="SourceAlpha" type="matrix" values="0 0 0 0 0 0 0 0 0 0 0 0 0 0 0 0 0 0 127 0" result="hardAlpha"/>
<feOffset dy="4"/>
<feGaussianBlur stdDeviation="2"/>
<feComposite in2="hardAlpha" operator="out"/>
<feColorMatrix type="matrix" values="0 0 0 0 0 0 0 0 0 0 0 0 0 0 0 0 0 0 0.25 0"/>
<feBlend mode="normal" in2="BackgroundImageFix" result="effect1_dropShadow_1_26"/>
<feBlend mode="normal" in="SourceGraphic" in2="effect1_dropShadow_1_26" result="shape"/>
</filter>
</defs>
</svg>
