<svg width="151" height="45" viewBox="0 0 151 45" fill="none" xmlns="http://www.w3.org/2000/svg">
<path d="M2.99026 21.5391C2.16185 21.5445 1.49465 22.2204 1.50003 23.0488C1.50541 23.8772 2.18133 24.5444 3.00974 24.539L2.99026 21.5391ZM149.064 23.1513C149.646 22.5617 149.64 21.612 149.051 21.03L139.443 11.5462C138.853 10.9643 137.904 10.9704 137.322 11.56C136.74 12.1496 136.746 13.0993 137.335 13.6813L145.876 22.1113L137.446 30.6515C136.864 31.2411 136.87 32.1908 137.459 32.7728C138.049 33.3547 138.999 33.3486 139.581 32.759L149.064 23.1513ZM3.00974 24.539L6.03051 24.5194L6.01103 21.5195L2.99026 21.5391L3.00974 24.539ZM12.072 24.4802L18.1136 24.441L18.0941 21.441L12.0526 21.4802L12.072 24.4802ZM24.1551 24.4017L30.1967 24.3625L30.1772 21.3626L24.1356 21.4018L24.1551 24.4017ZM36.2382 24.3233L42.2797 24.284L42.2603 21.2841L36.2187 21.3233L36.2382 24.3233ZM48.3213 24.2448L54.3628 24.2056L54.3433 21.2056L48.3018 21.2449L48.3213 24.2448ZM60.4044 24.1663L66.4459 24.1271L66.4264 21.1272L60.3849 21.1664L60.4044 24.1663ZM72.4874 24.0879L78.529 24.0486L78.5095 21.0487L72.468 21.0879L72.4874 24.0879ZM84.5705 24.0094L90.6121 23.9702L90.5926 20.9702L84.551 21.0095L84.5705 24.0094ZM96.6536 23.931L102.695 23.8917L102.676 20.8918L96.6341 20.931L96.6536 23.931ZM108.737 23.8525L114.778 23.8133L114.759 20.8133L108.717 20.8526L108.737 23.8525ZM120.82 23.774L126.861 23.7348L126.842 20.7349L120.8 20.7741L120.82 23.774ZM132.903 23.6956L138.944 23.6563L138.925 20.6564L132.883 20.6956L132.903 23.6956ZM144.986 23.6171L148.007 23.5975L147.987 20.5976L144.966 20.6172L144.986 23.6171ZM2.98052 20.0391C1.3237 20.0499 -0.0106953 21.4017 6.33001e-05 23.0585C0.0108219 24.7154 1.36266 26.0498 3.01948 26.039L2.98052 20.0391ZM150.132 24.205C151.296 23.0259 151.284 21.1264 150.104 19.9625L130.889 0.994964C129.71 -0.168976 127.81 -0.156642 126.646 1.02251C125.482 2.20167 125.495 4.10112 126.674 5.26506L143.754 22.1251L126.894 39.2055C125.73 40.3846 125.743 42.2841 126.922 43.448C128.101 44.612 130.001 44.5996 131.164 43.4205L150.132 24.205ZM3.01948 26.039L6.04025 26.0194L6.00129 20.0195L2.98052 20.0391L3.01948 26.039ZM12.0818 25.9802L18.1233 25.9409L18.0844 19.941L12.0428 19.9803L12.0818 25.9802ZM24.1649 25.9017L30.2064 25.8625L30.1674 19.8626L24.1259 19.9018L24.1649 25.9017ZM36.2479 25.8232L42.2895 25.784L42.2505 19.7841L36.209 19.8234L36.2479 25.8232ZM48.331 25.7448L54.3726 25.7055L54.3336 19.7057L48.2921 19.7449L48.331 25.7448ZM60.4141 25.6663L66.4556 25.6271L66.4167 19.6272L60.3751 19.6664L60.4141 25.6663ZM72.4972 25.5878L78.5387 25.5486L78.4998 19.5487L72.4582 19.588L72.4972 25.5878ZM84.5803 25.5094L90.6218 25.4702L90.5828 19.4703L84.5413 19.5095L84.5803 25.5094ZM96.6633 25.4309L102.705 25.3917L102.666 19.3918L96.6244 19.431L96.6633 25.4309ZM108.746 25.3525L114.788 25.3132L114.749 19.3134L108.707 19.3526L108.746 25.3525ZM120.829 25.274L126.871 25.2348L126.832 19.2349L120.791 19.2741L120.829 25.274ZM132.913 25.1955L138.954 25.1563L138.915 19.1564L132.874 19.1957L132.913 25.1955ZM144.996 25.1171L148.016 25.0975L147.977 19.0976L144.957 19.1172L144.996 25.1171Z" fill="white"/>
</svg>
