<svg width="74" height="74" viewBox="0 0 74 74" fill="none" xmlns="http://www.w3.org/2000/svg">
<path d="M29.3333 65C22.7222 62.7778 17.2778 58.8056 13 53.0833C8.72222 47.3611 6.58333 40.7778 6.58333 33.3333C6.58333 31.5556 6.72222 29.7778 7 28C7.27778 26.2222 7.72222 24.4722 8.33333 22.75L3 25.8333L0.5 21.5833L14.9167 13.25L23.25 27.5833L18.9167 30.0833L14.0833 21.8333C13.3056 23.6667 12.7083 25.5556 12.2917 27.5C11.875 29.4444 11.6667 31.4167 11.6667 33.4167C11.6667 39.8611 13.5694 45.5556 17.375 50.5C21.1806 55.4444 26.0278 58.8056 31.9167 60.5833L29.3333 65ZM53.3333 21.6667V16.6667H62.9167C60.25 13 56.9028 10.1389 52.875 8.08333C48.8472 6.02778 44.5556 5 40 5C36.1667 5 32.5972 5.69444 29.2917 7.08333C25.9861 8.47222 23.0556 10.3889 20.5 12.8333L17.9167 8.33333C20.9167 5.72222 24.2778 3.68056 28 2.20833C31.7222 0.736111 35.6944 0 39.9167 0C44.8056 0 49.4167 0.986111 53.75 2.95833C58.0833 4.93056 61.8333 7.72222 65 11.3333V5H70V21.6667H53.3333ZM49.5833 73.3333L35.1667 65L43.5 50.6667L47.75 53.1667L42.9167 61.5833C50.1389 60.8611 56.1806 57.8194 61.0417 52.4583C65.9028 47.0972 68.3333 40.75 68.3333 33.4167C68.3333 32.25 68.2639 31.1111 68.125 30C67.9861 28.8889 67.7778 27.7778 67.5 26.6667H72.6667C72.8889 27.7778 73.0556 28.8889 73.1667 30C73.2778 31.1111 73.3333 32.2222 73.3333 33.3333C73.3333 41.2778 70.8472 48.3056 65.875 54.4167C60.9028 60.5278 54.5556 64.3889 46.8333 66L52.0833 69.0833L49.5833 73.3333Z" fill="white"/>
</svg>
