<svg width="74" height="74" viewBox="0 0 74 74" fill="none" xmlns="http://www.w3.org/2000/svg">
<path d="M36.9803 48.6667C40.2156 48.6667 42.9721 47.5343 45.2499 45.2696C47.5277 43.005 48.6666 40.255 48.6666 37.0196C48.6666 33.7843 47.5342 31.0278 45.2695 28.75C43.0048 26.4723 40.2548 25.3334 37.0195 25.3334C33.7842 25.3334 31.0277 26.4657 28.7499 28.7305C26.4721 30.9951 25.3333 33.7451 25.3333 36.9805C25.3333 40.2157 26.4656 42.9723 28.7303 45.25C30.995 47.5278 33.745 48.6667 36.9803 48.6667ZM36.9999 53.6667C32.3888 53.6667 28.4583 52.0417 25.2083 48.7917C21.9583 45.5417 20.3333 41.6112 20.3333 37C20.3333 32.3889 21.9583 28.4584 25.2083 25.2084C28.4583 21.9584 32.3888 20.3334 36.9999 20.3334C41.611 20.3334 45.5416 21.9584 48.7916 25.2084C52.0416 28.4584 53.6666 32.3889 53.6666 37C53.6666 41.6112 52.0416 45.5417 48.7916 48.7917C45.5416 52.0417 41.611 53.6667 36.9999 53.6667ZM2.83325 39.5C2.12492 39.5 1.53117 39.2591 1.052 38.7771C0.572835 38.2951 0.333252 37.6979 0.333252 36.9855C0.333252 36.273 0.572835 35.6806 1.052 35.2084C1.53117 34.7362 2.12492 34.5 2.83325 34.5H11.1666C11.8749 34.5 12.4687 34.741 12.9478 35.223C13.427 35.705 13.6666 36.3022 13.6666 37.0146C13.6666 37.7271 13.427 38.3195 12.9478 38.7917C12.4687 39.2639 11.8749 39.5 11.1666 39.5H2.83325ZM62.8333 39.5C62.1249 39.5 61.5312 39.2591 61.052 38.7771C60.5728 38.2951 60.3333 37.6979 60.3333 36.9855C60.3333 36.273 60.5728 35.6806 61.052 35.2084C61.5312 34.7362 62.1249 34.5 62.8333 34.5H71.1666C71.8749 34.5 72.4687 34.741 72.9478 35.223C73.427 35.705 73.6666 36.3022 73.6666 37.0146C73.6666 37.7271 73.427 38.3195 72.9478 38.7917C72.4687 39.2639 71.8749 39.5 71.1666 39.5H62.8333ZM36.9853 13.6667C36.2728 13.6667 35.6805 13.4271 35.2083 12.948C34.736 12.4688 34.4999 11.875 34.4999 11.1667V2.83337C34.4999 2.12504 34.7409 1.53129 35.2228 1.05212C35.7048 0.572957 36.3021 0.333374 37.0145 0.333374C37.727 0.333374 38.3194 0.572957 38.7916 1.05212C39.2638 1.53129 39.4999 2.12504 39.4999 2.83337V11.1667C39.4999 11.875 39.2589 12.4688 38.777 12.948C38.295 13.4271 37.6978 13.6667 36.9853 13.6667ZM36.9853 73.6667C36.2728 73.6667 35.6805 73.4273 35.2083 72.9484C34.736 72.4689 34.4999 71.875 34.4999 71.1667V62.8334C34.4999 62.125 34.7409 61.5313 35.2228 61.0521C35.7048 60.573 36.3021 60.3334 37.0145 60.3334C37.727 60.3334 38.3194 60.573 38.7916 61.0521C39.2638 61.5313 39.4999 62.125 39.4999 62.8334V71.1667C39.4999 71.875 39.2589 72.4689 38.777 72.9484C38.295 73.4273 37.6978 73.6667 36.9853 73.6667ZM16.9999 20.5L12.2499 15.8334C11.7499 15.3334 11.5102 14.7333 11.5308 14.0331C11.5514 13.3329 11.7882 12.7357 12.2413 12.2415C12.7356 11.7472 13.3328 11.5 14.033 11.5C14.7332 11.5 15.3333 11.75 15.8333 12.25L20.4999 17C20.9444 17.5 21.1666 18.0834 21.1666 18.75C21.1666 19.4167 20.9444 19.9862 20.4999 20.4584C20.0555 20.9306 19.486 21.1667 18.7916 21.1667C18.0971 21.1667 17.4999 20.9445 16.9999 20.5ZM58.1666 61.75L53.4999 57C53.0555 56.5 52.8333 55.9063 52.8333 55.2188C52.8333 54.5313 53.0694 53.9584 53.5416 53.5C54.0138 53 54.5833 52.75 55.2499 52.75C55.9166 52.75 56.4999 53 56.9999 53.5L61.7499 58.1667C62.2499 58.6667 62.4896 59.2668 62.469 59.967C62.4485 60.6672 62.2116 61.2644 61.7585 61.7586C61.2643 62.2529 60.6671 62.5 59.9668 62.5C59.2667 62.5 58.6666 62.25 58.1666 61.75ZM53.4999 20.5C52.9999 20 52.7499 19.4167 52.7499 18.75C52.7499 18.0834 52.9999 17.5 53.4999 17L58.1666 12.25C58.6666 11.75 59.2667 11.5103 59.9668 11.531C60.6671 11.5515 61.2643 11.7883 61.7585 12.2415C62.2528 12.7357 62.4999 13.3329 62.4999 14.0331C62.4999 14.7333 62.2499 15.3334 61.7499 15.8334L56.9999 20.5C56.5555 20.9445 55.9898 21.1667 55.3029 21.1667C54.6161 21.1667 54.0151 20.9445 53.4999 20.5ZM12.2413 61.7586C11.7471 61.2644 11.4999 60.6672 11.4999 59.967C11.4999 59.2668 11.7499 58.6667 12.2499 58.1667L16.9999 53.5C17.4888 53 18.0694 52.75 18.7416 52.75C19.4138 52.75 19.9891 53 20.4673 53.5C20.9891 54 21.2499 54.5834 21.2499 55.25C21.2499 55.9167 20.9999 56.5 20.4999 57L15.8333 61.75C15.3333 62.25 14.7332 62.4897 14.033 62.4691C13.3328 62.4486 12.7356 62.2117 12.2413 61.7586Z" fill="white"/>
</svg>
